# xmcd CD database file
#
# Track frame offsets:
#	150
#	12949
#	27859
#	50444
#	70051
#	80860
#	103236
#	114589
#	136831
#	157508
#	179259
#	193529
#
# Disc length: 2808 seconds
#
# Revision: 1
# Processed by: cddbd v1.5.2PL0 Copyright (c) Steve Scherf et al.
# Submitted via: CDex 1.70beta2
#
DISCID=950af60c
DTITLE=Bill Dowey - Straight Up Blues - 9th and 4th
DYEAR=2000
DGENRE=Blues
TTITLE0=Well Maybe
TTITLE1=One More Night 
TTITLE2=Sittin' On Top Of The World
TTITLE3=Mean Old Frisco
TTITLE4=World Gone Wrong
TTITLE5=Jesus Gonna Make It Alright
TTITLE6=Buster's Boogie
TTITLE7=How Long Must This Go On
TTITLE8=Fannie Mae 
TTITLE9=Ain't Nobody's Business
TTITLE10=Street Sweepin'
TTITLE11=Angel From Montgomery
EXTD=YEAR: 2000
EXTT0=
EXTT1=
EXTT2=
EXTT3=
EXTT4=
EXTT5=
EXTT6=
EXTT7=
EXTT8=
EXTT9=
EXTT10=
EXTT11=
PLAYORDER=
